<svg height="512pt" viewBox="0 0 512 512" width="512pt" xmlns="http://www.w3.org/2000/svg"><path d="m440.894531 464.753906h-417.039062c-13.175781 0-23.855469-10.683594-23.855469-23.859375v-417.039062c0-13.175781 10.683594-23.855469 23.855469-23.855469h417.039062c13.175781 0 23.859375 10.679688 23.859375 23.855469v417.039062c0 13.175781-10.683594 23.859375-23.859375 23.859375zm0 0" fill="#e7e7e7"/><path d="m464.753906 23.855469v417.042969c0 13.175781-10.679687 23.851562-23.863281 23.851562h-28.902344c13.183594 0 23.863281-10.675781 23.863281-23.851562v-417.042969c0-13.175781-10.679687-23.85156275-23.863281-23.85156275h28.902344c13.183594 0 23.863281 10.67578175 23.863281 23.85156275zm0 0" fill="#cecece"/><path d="m464.753906 81.390625h-464.753906v-57.535156c0-13.175781 10.683594-23.855469 23.855469-23.855469h417.039062c13.175781 0 23.859375 10.679688 23.859375 23.855469zm0 0" fill="#64dcfc"/><path d="m464.753906 23.855469v57.535156h-28.902344v-57.535156c0-13.175781-10.679687-23.85156275-23.863281-23.85156275h28.902344c13.183594 0 23.863281 10.67578175 23.863281 23.85156275zm0 0" fill="#00d1fc"/><path d="m96.613281 150.957031c0 13.230469-10.726562 23.953125-23.953125 23.953125-13.230468 0-23.953125-10.722656-23.953125-23.953125s10.722657-23.953125 23.953125-23.953125c13.226563 0 23.953125 10.722656 23.953125 23.953125zm0 0" fill="#ffd86e"/><path d="m96.613281 260.335938c0 13.230468-10.726562 23.953124-23.953125 23.953124-13.230468 0-23.953125-10.722656-23.953125-23.953124 0-13.230469 10.722657-23.953126 23.953125-23.953126 13.226563 0 23.953125 10.722657 23.953125 23.953126zm0 0" fill="#ffd86e"/><path d="m96.613281 362.277344c0 13.230468-10.726562 23.953125-23.953125 23.953125-13.230468 0-23.953125-10.722657-23.953125-23.953125 0-13.226563 10.722657-23.953125 23.953125-23.953125 13.226563 0 23.953125 10.726562 23.953125 23.953125zm0 0" fill="#ffd86e"/><path d="m96.613281 150.953125c0 13.234375-10.726562 23.953125-23.953125 23.953125-6.617187 0-12.605468-2.679688-16.945312-7.007812 12.339844-.96875 22.050781-11.277344 22.050781-23.871094 0-6.617188-2.691406-12.605469-7.03125-16.945313.636719-.0625 1.277344-.082031 1.925781-.082031 13.226563 0 23.953125 10.730469 23.953125 23.953125zm0 0" fill="#ffb509"/><path d="m96.613281 260.335938c0 13.234374-10.726562 23.953124-23.953125 23.953124-6.617187 0-12.605468-2.679687-16.945312-7.007812 12.339844-.96875 22.050781-11.289062 22.050781-23.871094 0-6.617187-2.691406-12.605468-7.03125-16.945312.636719-.0625 1.277344-.082032 1.925781-.082032 13.226563 0 23.953125 10.726563 23.953125 23.953126zm0 0" fill="#ffb509"/><path d="m96.613281 362.273438c0 13.238281-10.726562 23.957031-23.953125 23.957031-6.617187 0-12.605468-2.679688-16.945312-7.011719 12.339844-.96875 22.050781-11.273438 22.050781-23.871094 0-6.617187-2.691406-12.605468-7.03125-16.945312.636719-.0625 1.277344-.082032 1.925781-.082032 13.226563 0 23.953125 10.730469 23.953125 23.953126zm0 0" fill="#ffb509"/><g fill="#838383"><path d="m167.398438 158.457031h-39.167969c-4.144531 0-7.5-3.355469-7.5-7.5s3.355469-7.5 7.5-7.5h39.167969c4.140624 0 7.5 3.355469 7.5 7.5s-3.359376 7.5-7.5 7.5zm0 0"/><path d="m212.75 158.457031h-18.550781c-4.144531 0-7.5-3.355469-7.5-7.5s3.355469-7.5 7.5-7.5h18.550781c4.144531 0 7.5 3.355469 7.5 7.5s-3.355469 7.5-7.5 7.5zm0 0"/><path d="m186.980469 185.746094h-25.765625c-4.144532 0-7.5-3.355469-7.5-7.5 0-4.144532 3.355468-7.5 7.5-7.5h25.765625c4.144531 0 7.5 3.355468 7.5 7.5 0 4.144531-3.355469 7.5-7.5 7.5zm0 0"/><path d="m199.351562 214.011719h-13.398437c-4.144531 0-7.5-3.359375-7.5-7.5 0-4.144531 3.355469-7.5 7.5-7.5h13.398437c4.140626 0 7.5 3.355469 7.5 7.5 0 4.140625-3.359374 7.5-7.5 7.5zm0 0"/><path d="m308.609375 214.011719h-25.769531c-4.144532 0-7.5-3.359375-7.5-7.5 0-4.144531 3.355468-7.5 7.5-7.5h25.769531c4.144531 0 7.5 3.355469 7.5 7.5 0 4.140625-3.355469 7.5-7.5 7.5zm0 0"/><path d="m272.53125 185.746094h-61.84375c-4.140625 0-7.5-3.355469-7.5-7.5 0-4.144532 3.359375-7.5 7.5-7.5h61.84375c4.144531 0 7.5 3.355468 7.5 7.5 0 4.144531-3.355469 7.5-7.5 7.5zm0 0"/><path d="m259.132812 214.011719h-37.105468c-4.140625 0-7.5-3.359375-7.5-7.5 0-4.144531 3.359375-7.5 7.5-7.5h37.105468c4.144532 0 7.5 3.355469 7.5 7.5 0 4.140625-3.355468 7.5-7.5 7.5zm0 0"/><path d="m149.875 264.5h-21.644531c-4.144531 0-7.5-3.355469-7.5-7.5s3.355469-7.5 7.5-7.5h21.644531c4.144531 0 7.5 3.355469 7.5 7.5s-3.355469 7.5-7.5 7.5zm0 0"/><path d="m250.890625 264.5h-79.367187c-4.144532 0-7.5-3.355469-7.5-7.5s3.355468-7.5 7.5-7.5h79.367187c4.140625 0 7.5 3.355469 7.5 7.5s-3.359375 7.5-7.5 7.5zm0 0"/><path d="m236.457031 291.789062h-75.242187c-4.144532 0-7.5-3.355468-7.5-7.5 0-4.144531 3.355468-7.5 7.5-7.5h75.242187c4.144531 0 7.5 3.355469 7.5 7.5 0 4.144532-3.355469 7.5-7.5 7.5zm0 0"/><path d="m272.53125 291.789062h-14.429688c-4.140624 0-7.5-3.355468-7.5-7.5 0-4.144531 3.359376-7.5 7.5-7.5h14.429688c4.144531 0 7.5 3.355469 7.5 7.5 0 4.144532-3.355469 7.5-7.5 7.5zm0 0"/><path d="m167.398438 365.953125h-39.167969c-4.144531 0-7.5-3.355469-7.5-7.5 0-4.140625 3.355469-7.5 7.5-7.5h39.167969c4.140624 0 7.5 3.359375 7.5 7.5 0 4.144531-3.359376 7.5-7.5 7.5zm0 0"/><path d="m212.75 365.953125h-18.550781c-4.144531 0-7.5-3.355469-7.5-7.5 0-4.140625 3.355469-7.5 7.5-7.5h18.550781c4.144531 0 7.5 3.359375 7.5 7.5 0 4.144531-3.355469 7.5-7.5 7.5zm0 0"/><path d="m186.980469 393.242188h-25.765625c-4.144532 0-7.5-3.355469-7.5-7.5 0-4.140626 3.355468-7.5 7.5-7.5h25.765625c4.144531 0 7.5 3.359374 7.5 7.5 0 4.144531-3.355469 7.5-7.5 7.5zm0 0"/><path d="m199.351562 421.507812h-13.398437c-4.144531 0-7.5-3.355468-7.5-7.5 0-4.144531 3.355469-7.5 7.5-7.5h13.398437c4.140626 0 7.5 3.355469 7.5 7.5 0 4.144532-3.359374 7.5-7.5 7.5zm0 0"/><path d="m308.609375 421.507812h-25.769531c-4.144532 0-7.5-3.355468-7.5-7.5 0-4.144531 3.355468-7.5 7.5-7.5h25.769531c4.144531 0 7.5 3.355469 7.5 7.5 0 4.144532-3.355469 7.5-7.5 7.5zm0 0"/><path d="m272.53125 393.242188h-61.84375c-4.140625 0-7.5-3.355469-7.5-7.5 0-4.140626 3.359375-7.5 7.5-7.5h61.84375c4.144531 0 7.5 3.359374 7.5 7.5 0 4.144531-3.355469 7.5-7.5 7.5zm0 0"/><path d="m259.132812 421.507812h-37.105468c-4.140625 0-7.5-3.355468-7.5-7.5 0-4.144531 3.359375-7.5 7.5-7.5h37.105468c4.144532 0 7.5 3.355469 7.5 7.5 0 4.144532-3.355468 7.5-7.5 7.5zm0 0"/></g><path d="m511.113281 426.191406c0 47.386719-38.414062 85.804688-85.804687 85.804688-47.386719 0-85.800782-38.417969-85.800782-85.804688 0-47.386718 38.414063-85.804687 85.800782-85.804687 47.390625 0 85.804687 38.417969 85.804687 85.804687zm0 0" fill="#c9f0ff"/><path d="m511.113281 426.191406c0 47.394532-38.414062 85.808594-85.808593 85.808594-18.179688 0-35.035157-5.660156-48.90625-15.308594 7.316406 2.042969 15.039062 3.125 23.003906 3.125 47.394531 0 85.8125-38.417968 85.8125-85.808594 0-29.210937-14.597656-55.011718-36.890625-70.492187 36.21875 10.050781 62.789062 43.261719 62.789062 82.675781zm0 0" fill="#9ae7fd"/><path d="m72.660156 267.835938c-2.09375 0-4.175781-.871094-5.660156-2.578126-2.71875-3.125-2.386719-7.863281.738281-10.582031l37.523438-32.632812c3.121093-2.71875 7.859375-2.386719 10.578125.738281s2.390625 7.863281-.734375 10.578125l-37.523438 32.636719c-1.421875 1.234375-3.175781 1.839844-4.921875 1.839844zm0 0" fill="#ff5770"/><path d="m72.660156 160.210938c-2.09375 0-4.175781-.871094-5.660156-2.578126-2.71875-3.125-2.386719-7.863281.738281-10.582031l37.523438-32.632812c3.121093-2.71875 7.859375-2.386719 10.578125.738281s2.390625 7.863281-.734375 10.578125l-37.523438 32.636719c-1.421875 1.234375-3.175781 1.839844-4.921875 1.839844zm0 0" fill="#ff5770"/><path d="m72.660156 370.3125c-2.09375 0-4.175781-.871094-5.660156-2.578125-2.71875-3.125-2.386719-7.863281.738281-10.582031l37.523438-32.632813c3.121093-2.71875 7.859375-2.386719 10.578125.738281s2.390625 7.863282-.734375 10.582032l-37.523438 32.632812c-1.421875 1.234375-3.175781 1.839844-4.921875 1.839844zm0 0" fill="#ff5770"/><path d="m484.078125 399.890625-18.222656-18.222656c-2.816407-2.816407-7.382813-2.816407-10.203125 0l-46.511719 46.515625-14.671875-14.671875c-2.152344-2.152344-5.644531-2.152344-7.796875 0l-20.628906 20.628906c-2.152344 2.152344-2.152344 5.640625 0 7.792969l38.558593 37.433594c2.816407 2.816406 7.386719 2.816406 10.203126 0l69.273437-69.273438c2.816406-2.820312 2.816406-7.386719 0-10.203125zm0 0" fill="#80e0dc"/><path d="m484.078125 410.089844-69.273437 69.277344c-2.816407 2.8125-7.390626 2.8125-10.207032 0l-5.195312-5.039063c.332031-.226563.640625-.496094.929687-.785156l76.851563-76.851563c.648437-.648437 1.164062-1.378906 1.535156-2.164062l5.359375 5.359375c2.816406 2.824219 2.816406 7.390625 0 10.203125zm0 0" fill="#00a8b0"/><path d="m53.808594 40.695312c0 8.257813-6.695313 14.957032-14.957032 14.957032-8.257812 0-14.957031-6.699219-14.957031-14.957032 0-8.261718 6.699219-14.957031 14.957031-14.957031 8.261719 0 14.957032 6.695313 14.957032 14.957031zm0 0" fill="#ff5770"/><path d="m111.566406 40.695312c0 8.257813-6.695312 14.957032-14.953125 14.957032-8.261719 0-14.957031-6.699219-14.957031-14.957032 0-8.261718 6.695312-14.957031 14.957031-14.957031 8.257813 0 14.953125 6.695313 14.953125 14.957031zm0 0" fill="#ffd86e"/><path d="m169.328125 40.695312c0 8.257813-6.695313 14.957032-14.957031 14.957032-8.261719 0-14.957032-6.699219-14.957032-14.957032 0-8.261718 6.695313-14.957031 14.957032-14.957031 8.261718 0 14.957031 6.695313 14.957031 14.957031zm0 0" fill="#80e0dc"/><path d="m53.804688 40.699219c0 8.257812-6.691407 14.945312-14.949219 14.945312-3.996094 0-7.636719-1.566406-10.316407-4.132812 8.089844-.171875 14.605469-6.789063 14.605469-14.933594 0-4.265625-1.78125-8.101563-4.636719-10.824219.113282-.011718.234376-.011718.347657-.011718 8.257812 0 14.949219 6.691406 14.949219 14.957031zm0 0" fill="#ff435f"/><path d="m111.566406 40.699219c0 8.257812-6.691406 14.945312-14.957031 14.945312-4 0-7.628906-1.566406-10.320313-4.132812 8.105469-.171875 14.617188-6.789063 14.617188-14.933594 0-4.265625-1.78125-8.101563-4.636719-10.824219.113281-.011718.226563-.011718.339844-.011718 8.265625 0 14.957031 6.691406 14.957031 14.957031zm0 0" fill="#ffb509"/><path d="m169.328125 40.699219c0 8.257812-6.699219 14.945312-14.957031 14.945312-4 0-7.625-1.566406-10.316406-4.132812 8.101562-.171875 14.605468-6.789063 14.605468-14.933594 0-4.265625-1.785156-8.101563-4.640625-10.824219.113281-.011718.238281-.011718.351563-.011718 8.257812 0 14.957031 6.691406 14.957031 14.957031zm0 0" fill="#00a8b0"/></svg>