<svg height="512pt" viewBox="0 0 512 512" width="512pt" xmlns="http://www.w3.org/2000/svg"><path d="m484.878906 425.761719h-458.640625c-14.492187 0-26.238281-11.746094-26.238281-26.238281v-373.285157c0-14.492187 11.746094-26.238281 26.238281-26.238281h458.640625c14.492188 0 26.238282 11.746094 26.238282 26.238281v373.285157c0 14.492187-11.746094 26.238281-26.238282 26.238281zm0 0" fill="#ffd86e"/><path d="m511.121094 26.242188v373.28125c0 14.492187-11.746094 26.238281-26.238282 26.238281h-32.054687c14.492187 0 26.242187-11.746094 26.242187-26.238281v-373.28125c0-14.492188-11.75-26.23828175-26.242187-26.23828175h32.054687c14.492188 0 26.238282 11.74609375 26.238282 26.23828175zm0 0" fill="#ffb509"/><path d="m511.703125 89.511719h-511.132813v-63.273438c0-14.492187 11.746094-26.238281 26.234376-26.238281h458.660156c14.492187 0 26.238281 11.746094 26.238281 26.238281zm0 0" fill="#acacac"/><path d="m512 26.234375v63.28125h-32.636719v-63.28125c0-14.484375-11.75-26.23046875-26.242187-26.23046875h32.640625c14.492187 0 26.238281 11.74609375 26.238281 26.23046875zm0 0" fill="#9c9c9c"/><path d="m184.070312 410.332031h142.976563v76.6875h-142.976563zm0 0" fill="#5a5a5a"/><path d="m511.117188 362.542969h-511.117188v36.980469c0 14.492187 11.746094 26.238281 26.238281 26.238281h458.640625c14.492188 0 26.238282-11.746094 26.238282-26.238281zm0 0" fill="#838383"/><path d="m511.121094 362.542969v36.980469c0 14.492187-11.746094 26.238281-26.238282 26.238281h-32.054687c14.492187 0 26.242187-11.746094 26.242187-26.238281v-36.980469zm0 0" fill="#5a5a5a"/><path d="m64.105469 44.535156c0 8.246094-6.683594 14.925782-14.925781 14.925782-8.242188 0-14.925782-6.679688-14.925782-14.925782 0-8.242187 6.683594-14.921875 14.925782-14.921875 8.242187 0 14.925781 6.679688 14.925781 14.921875zm0 0" fill="#ff5770"/><path d="m121.746094 44.535156c0 8.246094-6.679688 14.925782-14.925782 14.925782-8.242187 0-14.921874-6.679688-14.921874-14.925782 0-8.242187 6.679687-14.921875 14.921874-14.921875 8.246094 0 14.925782 6.679688 14.925782 14.921875zm0 0" fill="#ffd86e"/><path d="m179.386719 44.535156c0 8.246094-6.679688 14.925782-14.921875 14.925782-8.246094 0-14.925782-6.679688-14.925782-14.925782 0-8.242187 6.679688-14.921875 14.925782-14.921875 8.242187 0 14.921875 6.679688 14.921875 14.921875zm0 0" fill="#80e0dc"/><path d="m64.101562 44.542969c0 8.238281-6.675781 14.914062-14.914062 14.914062-3.992188 0-7.625-1.5625-10.296875-4.125 8.074219-.175781 14.574219-6.777343 14.574219-14.90625 0-4.257812-1.78125-8.082031-4.628906-10.800781.113281-.011719.238281-.011719.351562-.011719 8.238281.003907 14.914062 6.679688 14.914062 14.929688zm0 0" fill="#ff435f"/><path d="m121.746094 44.542969c0 8.238281-6.675782 14.914062-14.925782 14.914062-3.992187 0-7.613281-1.5625-10.296874-4.125 8.085937-.175781 14.585937-6.777343 14.585937-14.90625 0-4.257812-1.78125-8.082031-4.628906-10.800781.113281-.011719.226562-.011719.339843-.011719 8.25.003907 14.925782 6.679688 14.925782 14.929688zm0 0" fill="#ffb509"/><path d="m179.390625 44.542969c0 8.238281-6.6875 14.914062-14.925781 14.914062-3.992188 0-7.613282-1.5625-10.296875-4.125 8.085937-.175781 14.574219-6.777343 14.574219-14.90625 0-4.257812-1.777344-8.082031-4.628907-10.800781.113281-.011719.238281-.011719.351563-.011719 8.238281.003907 14.925781 6.679688 14.925781 14.929688zm0 0" fill="#00a8b0"/><path d="m373.378906 511.132812h-235.640625c-2.839843 0-5.144531-2.300781-5.144531-5.140624v-16.667969c0-11.300781 9.164062-20.464844 20.464844-20.464844h205c11.300781 0 20.460937 9.164063 20.460937 20.464844v16.667969c.003907 2.839843-2.300781 5.140624-5.140625 5.140624zm0 0" fill="#838383"/><path d="m431.582031 224.707031h-350.890625c-4.546875 0-8.230468-3.6875-8.230468-8.230469v-78.730468c0-4.542969 3.683593-8.230469 8.230468-8.230469h350.890625c4.542969 0 8.230469 3.6875 8.230469 8.230469v78.730468c0 4.542969-3.6875 8.230469-8.230469 8.230469zm0 0" fill="#e7e7e7"/><path d="m431.582031 224.707031h-19.671875v-95.191406h19.671875c4.542969 0 8.230469 3.6875 8.230469 8.230469v78.730468c0 4.542969-3.6875 8.230469-8.230469 8.230469zm0 0" fill="#cecece"/><path d="m106.820312 201.632812c-4.140624 0-7.5-3.359374-7.5-7.5v-34.042968c0-4.140625 3.359376-7.5 7.5-7.5 4.144532 0 7.5 3.359375 7.5 7.5v34.042968c0 4.140626-3.355468 7.5-7.5 7.5zm0 0" fill="#5a5a5a"/><path d="m444.304688 436.992188c-10.480469 12.488281-29.097657 14.121093-41.585938 3.644531l-115.953125-97.261719c-12.488281-10.476562-14.121094-29.09375-3.644531-41.585938 10.476562-12.488281 29.09375-14.121093 41.585937-3.644531l115.949219 97.261719c12.492188 10.476562 14.121094 29.09375 3.648438 41.585938zm0 0" fill="#e7e7e7"/><path d="m444.300781 436.988281c-1 1.191407-2.078125 2.289063-3.214843 3.273438 2.800781-10.691407-.546876-22.519531-9.585938-30.089844l-115.945312-97.257813c-5.53125-4.640624-12.261719-6.910156-18.953126-6.910156-6.988281 0-13.925781 2.464844-19.417968 7.277344 1.066406-4.101562 3.035156-8.035156 5.9375-11.492188 5.832031-6.960937 14.199218-10.542968 22.621094-10.542968 6.703124 0 13.433593 2.261718 18.964843 6.902344l115.945313 97.257812c12.496094 10.480469 14.125 29.09375 3.648437 41.582031zm0 0" fill="#cecece"/><path d="m354.558594 277.53125c0 61.292969-49.6875 110.980469-110.980469 110.980469s-110.980469-49.6875-110.980469-110.980469c0-61.296875 49.6875-110.984375 110.980469-110.984375s110.980469 49.6875 110.980469 110.984375zm0 0" fill="#0396fd"/><path d="m354.5625 277.527344c0 61.296875-49.6875 110.984375-110.984375 110.984375-14.671875 0-28.671875-2.84375-41.492187-8.015625 5.207031.753906 10.539062 1.144531 15.964843 1.144531 61.296875 0 110.984375-49.6875 110.984375-110.976563 0-46.640624-28.765625-86.554687-69.527344-102.976562 53.75 7.714844 95.054688 53.953125 95.054688 109.839844zm0 0" fill="#0077f0"/><path d="m318.074219 277.53125c0 41.140625-33.351563 74.496094-74.496094 74.496094s-74.5-33.355469-74.5-74.496094c0-41.144531 33.355469-74.5 74.5-74.5s74.496094 33.355469 74.496094 74.5zm0 0" fill="#c9f0ff"/><path d="m318.078125 277.527344c0 41.140625-33.359375 74.503906-74.5 74.503906-12.09375 0-23.523437-2.882812-33.617187-8.007812 4.222656.75 8.5625 1.136718 12.996093 1.136718 41.152344 0 74.503907-33.355468 74.503907-74.496094 0-29.058593-16.628907-54.222656-40.894532-66.503906 34.949219 6.144532 61.511719 36.660156 61.511719 73.367188zm0 0" fill="#9ae7fd"/><g fill="#0396fd"><path d="m222.957031 282.25c-1.617187 0-3.242187-.519531-4.613281-1.589844-3.265625-2.550781-3.84375-7.265625-1.292969-10.527344l16.960938-21.699218c2.554687-3.261719 7.265625-3.839844 10.527343-1.289063 3.265626 2.550781 3.84375 7.265625 1.292969 10.527344l-16.960937 21.699219c-1.480469 1.890625-3.6875 2.878906-5.914063 2.878906zm0 0"/><path d="m229.609375 313.503906c-1.617187 0-3.242187-.515625-4.613281-1.589844-3.265625-2.550781-3.84375-7.265624-1.292969-10.527343l44.519531-56.953125c2.550782-3.261719 7.261719-3.84375 10.527344-1.289063 3.261719 2.550781 3.839844 7.265625 1.289062 10.527344l-44.515624 56.953125c-1.480469 1.890625-3.6875 2.878906-5.914063 2.878906zm0 0"/></g></svg>