<svg height="511pt" viewBox="0 1 511 511.999" width="511pt" xmlns="http://www.w3.org/2000/svg"><path d="m480.171875 456.019531h-449.789063v-299.882812c0-12.753907 10.339844-23.09375 23.089844-23.09375h403.609375c12.753907 0 23.089844 10.339843 23.089844 23.09375zm0 0" fill="#e7e7e7"/><path d="m480.175781 156.140625v299.878906h-27.808593v-299.878906c0-12.761719-10.335938-23.09375-23.09375-23.09375h27.808593c12.75 0 23.09375 10.332031 23.09375 23.09375zm0 0" fill="#cecece"/><path d="m439.679688 456.019531h-368.804688v-278.011719c0-4.699218 3.808594-8.507812 8.507812-8.507812h351.789063c4.699219 0 8.507813 3.808594 8.507813 8.507812zm0 0" fill="#c9f0ff"/><path d="m439.679688 178.007812v278.007813h-26.980469v-278.007813c0-4.695312-3.808594-8.511718-8.511719-8.511718h26.984375c4.703125 0 8.507813 3.816406 8.507813 8.511718zm0 0" fill="#9ae7fd"/><path d="m484.890625 511.996094h-459.226563c-13.898437 0-25.164062-11.265625-25.164062-25.164063v-39.996093c0-3.402344 2.757812-6.160157 6.160156-6.160157h497.234375c3.402344 0 6.160157 2.757813 6.160157 6.160157v39.996093c0 13.898438-11.265626 25.164063-25.164063 25.164063zm0 0" fill="#838383"/><path d="m503.894531 440.675781c3.402344 0 6.160157 2.757813 6.160157 6.160157v39.996093c0 13.894531-11.261719 25.167969-25.164063 25.167969h-23.003906c13.894531 0 25.160156-11.273438 25.160156-25.167969v-46.15625zm0 0" fill="#5a5a5a"/><path d="m271.78125 440.675781h-102.113281l12.058593 27.59375c.820313 1.875 2.675782 3.089844 4.726563 3.089844h137.652344c2.050781 0 3.90625-1.214844 4.726562-3.089844l12.058594-27.59375zm0 0" fill="#acacac"/><path d="m340.886719 440.675781-12.054688 27.589844c-.828125 1.878906-2.671875 3.09375-4.726562 3.09375h-16.636719c.164062-.257813.320312-.523437.445312-.8125l13.046876-29.871094zm0 0" fill="#9c9c9c"/><path d="m107.832031 209.632812c-.503906 0-1.007812-.050781-1.511719-.140624-.480468-.101563-.972656-.25-1.4375-.441407-.460937-.195312-.914062-.433593-1.335937-.710937-.417969-.285156-.808594-.605469-1.167969-.953125-.351562-.359375-.667968-.75-.957031-1.171875-.277344-.417969-.511719-.863282-.707031-1.335938-.183594-.460937-.339844-.945312-.429688-1.4375-.105468-.492187-.15625-1.003906-.15625-1.507812s.050782-1.007813.15625-1.5c.089844-.492188.246094-.972656.429688-1.445313.195312-.464843.429687-.90625.707031-1.328125.289063-.417968.605469-.820312.957031-1.167968.359375-.359376.75-.679688 1.167969-.957032.421875-.277344.875-.511718 1.335937-.707031.460938-.195313.957032-.339844 1.4375-.441406.996094-.207031 2.023438-.207031 3.011719 0 .492188.101562.972657.246093 1.445313.441406.464844.195313.914062.429687 1.324218.707031.421876.277344.824219.597656 1.171876.957032.359374.347656.679687.75.953124 1.167968.277344.421875.523438.863282.710938 1.328125.195312.472657.339844.953125.441406 1.445313.101563.492187.152344.996094.152344 1.5s-.050781 1.015625-.152344 1.507812c-.101562.492188-.246094.976563-.441406 1.4375-.1875.472656-.433594.917969-.710938 1.335938-.273437.421875-.59375.8125-.953124 1.171875-.347657.347656-.75.667969-1.171876.953125-.410156.277344-.859374.515625-1.324218.710937-.472656.195313-.953125.339844-1.445313.441407-.496093.089843-1 .140624-1.5.140624zm0 0" fill="#5a5a5a"/><path d="m134.601562 209.632812c-.503906 0-1.007812-.050781-1.507812-.140624-.496094-.101563-.976562-.25-1.4375-.441407-.464844-.195312-.914062-.433593-1.335938-.710937-.421874-.285156-.8125-.605469-1.171874-.953125-.347657-.359375-.675782-.75-.953126-1.171875-.277343-.417969-.515624-.863282-.710937-1.335938-.195313-.460937-.335937-.945312-.441406-1.4375-.089844-.492187-.144531-1.003906-.144531-1.507812s.054687-1.007813.144531-1.5c.105469-.492188.246093-.972656.441406-1.445313.195313-.464843.433594-.90625.710937-1.328125.273438-.417968.605469-.820312.953126-1.167968.359374-.359376.75-.679688 1.171874-.957032.421876-.277344.871094-.511718 1.335938-.707031.460938-.195313.941406-.339844 1.4375-.441406.996094-.207031 2.023438-.207031 3.007812 0 .492188.101562.976563.246093 1.445313.441406.464844.195313.90625.429687 1.328125.707031.417969.277344.808594.597656 1.167969.957032.359375.347656.679687.75.957031 1.167968.277344.421875.523438.863282.707031 1.328125.195313.472657.339844.953125.441407 1.445313.105468.492187.15625.996094.15625 1.5s-.050782 1.015625-.15625 1.507812c-.101563.492188-.246094.976563-.441407 1.4375-.183593.472656-.429687.917969-.707031 1.335938-.277344.421875-.597656.8125-.957031 1.171875-.359375.347656-.75.667969-1.167969.953125-.421875.277344-.863281.515625-1.328125.710937-.46875.195313-.953125.339844-1.445313.441407-.492187.089843-.996093.140624-1.5.140624zm0 0" fill="#5a5a5a"/><path d="m161.371094 209.632812c-.503906 0-1.015625-.050781-1.507813-.140624-.496093-.101563-.976562-.25-1.441406-.441407-.46875-.195312-.914063-.433593-1.332031-.710937-.421875-.285156-.8125-.605469-1.171875-.953125-.347657-.359375-.675781-.75-.953125-1.171875-.277344-.417969-.515625-.863282-.710938-1.335938-.195312-.460937-.335937-.945312-.441406-1.4375-.101562-.492187-.140625-1.003906-.140625-1.507812s.039063-1.007813.140625-1.5c.105469-.492188.246094-.972656.441406-1.445313.195313-.464843.433594-.90625.710938-1.328125.277344-.417968.605468-.820312.953125-1.167968.359375-.359376.75-.679688 1.171875-.957032.417968-.277344.863281-.511718 1.332031-.707031.464844-.195313.945313-.339844 1.441406-.441406.996094-.207031 2.019531-.207031 3.007813 0 .492187.101562.972656.246093 1.449218.441406.460938.195313.902344.429687 1.324219.707031s.808594.597656 1.171875.957032c.347656.347656.675782.75.953125 1.167968.277344.421875.511719.863282.707031 1.328125.195313.472657.339844.953125.441407 1.445313.105469.492187.15625.996094.15625 1.5s-.054688 1.015625-.15625 1.507812c-.101563.492188-.246094.976563-.441407 1.4375-.195312.472656-.429687.917969-.707031 1.335938-.277343.421875-.605469.8125-.953125 1.171875-.359375.347656-.75.667969-1.171875.953125-.421875.277344-.863281.515625-1.324219.710937-.472656.195313-.957031.339844-1.449218.441407-.492188.089843-1.007813.140624-1.5.140624zm0 0" fill="#5a5a5a"/><path d="m407.589844 235.726562h-304.621094c-4.253906 0-7.703125-3.449218-7.703125-7.703124 0-4.25 3.449219-7.699219 7.703125-7.699219h304.621094c4.253906 0 7.699218 3.449219 7.699218 7.699219 0 4.253906-3.445312 7.703124-7.699218 7.703124zm0 0" fill="#5a5a5a"/><path d="m398.78125 344.804688h-287.007812c-4.863282 0-8.804688-3.945313-8.804688-8.808594v-70.632813c0-4.863281 3.941406-8.804687 8.804688-8.804687h287.007812c4.867188 0 8.808594 3.945312 8.808594 8.804687v70.632813c0 4.863281-3.941406 8.808594-8.808594 8.808594zm0 0" fill="#ff5770"/><path d="m398.78125 344.804688h-17.628906v-88.246094h17.628906c4.867188 0 8.808594 3.941406 8.808594 8.804687v70.632813c0 4.863281-3.941406 8.808594-8.808594 8.808594zm0 0" fill="#ff435f"/><g fill="#5a5a5a"><path d="m216.46875 382.15625h-104.949219c-4.253906 0-7.699219-3.445312-7.699219-7.699219 0-4.253906 3.445313-7.699219 7.699219-7.699219h104.949219c4.253906 0 7.703125 3.445313 7.703125 7.699219 0 4.253907-3.449219 7.699219-7.703125 7.699219zm0 0"/><path d="m288.390625 382.15625h-43.550781c-4.253906 0-7.703125-3.445312-7.703125-7.699219 0-4.253906 3.449219-7.699219 7.703125-7.699219h43.550781c4.257813 0 7.703125 3.445313 7.703125 7.699219 0 4.253907-3.445312 7.699219-7.703125 7.699219zm0 0"/><path d="m399.035156 382.15625h-81.996094c-4.253906 0-7.699218-3.445312-7.699218-7.699219 0-4.253906 3.445312-7.699219 7.699218-7.699219h81.996094c4.253906 0 7.703125 3.445313 7.703125 7.699219 0 4.253907-3.449219 7.699219-7.703125 7.699219zm0 0"/><path d="m164.222656 413.855469h-52.703125c-4.253906 0-7.699219-3.449219-7.699219-7.703125s3.445313-7.699219 7.699219-7.699219h52.703125c4.253906 0 7.699219 3.445313 7.699219 7.699219.003906 4.253906-3.445313 7.703125-7.699219 7.703125zm0 0"/><path d="m317.039062 413.855469h-115.976562c-4.253906 0-7.703125-3.449219-7.703125-7.703125s3.449219-7.699219 7.703125-7.699219h115.976562c4.253907 0 7.703126 3.445313 7.703126 7.699219s-3.449219 7.703125-7.703126 7.703125zm0 0"/><path d="m399.035156 413.855469h-58.144531c-4.253906 0-7.703125-3.449219-7.703125-7.703125s3.449219-7.699219 7.703125-7.699219h58.144531c4.253906 0 7.703125 3.445313 7.703125 7.699219s-3.449219 7.703125-7.703125 7.703125zm0 0"/></g><path d="m511.660156 101.722656c0 56.175782-45.542968 101.71875-101.722656 101.71875s-101.71875-45.542968-101.71875-101.71875c0-56.179687 45.539062-101.722656 101.71875-101.722656s101.722656 45.542969 101.722656 101.722656zm0 0" fill="#ffd86e"/><path d="m511.65625 101.71875c0 56.183594-45.539062 101.722656-101.722656 101.722656-30.253906 0-57.421875-13.210937-76.039063-34.171875 14.398438 7.820313 30.914063 12.265625 48.457031 12.265625 56.175782 0 101.710938-45.550781 101.710938-101.722656 0-25.929688-9.703125-49.59375-25.683594-67.558594 31.730469 17.214844 53.277344 50.828125 53.277344 89.464844zm0 0" fill="#ffb509"/><path d="m401.390625 53.839844-5.203125 3.859375c-3.414062 2.53125-4.132812 7.359375-1.597656 10.773437 1.511718 2.035156 3.835937 3.113282 6.191406 3.113282 1.59375 0 3.207031-.492188 4.585938-1.515626l23.117187-17.152343c1.933594-1.4375 3.085937-3.695313 3.109375-6.105469.027344-2.410156-1.078125-4.695312-2.984375-6.167969l-23.117187-17.898437c-3.363282-2.601563-8.199219-1.988282-10.804688 1.375-2.601562 3.363281-1.988281 8.199218 1.375 10.804687l4.40625 3.414063c-31.675781 5.628906-55.808594 33.34375-55.808594 66.613281 0 10.734375 2.578125 21.421875 7.457032 30.910156 1.367187 2.65625 4.0625 4.183594 6.855468 4.183594 1.183594 0 2.390625-.277344 3.515625-.855469 3.785157-1.945312 5.273438-6.585937 3.328125-10.371094-3.820312-7.425781-5.753906-15.453124-5.753906-23.867187 0-25.070313 17.742188-46.066406 41.328125-51.113281zm0 0" fill="#5a5a5a"/><path d="m475.21875 98.488281c0-10.734375-2.582031-21.421875-7.460938-30.910156-1.945312-3.785156-6.59375-5.273437-10.371093-3.324219-3.78125 1.941406-5.269531 6.585938-3.324219 10.367188 3.816406 7.425781 5.753906 15.453125 5.753906 23.871094 0 25.070312-17.746094 46.066406-41.332031 51.113281l5.203125-3.859375c3.414062-2.535156 4.128906-7.359375 1.597656-10.773438-2.535156-3.417968-7.359375-4.132812-10.777344-1.597656l-23.117187 17.152344c-1.933594 1.433594-3.085937 3.695312-3.109375 6.105468-.027344 2.410157 1.078125 4.691407 2.984375 6.167969l23.117187 17.898438c1.402344 1.085937 3.0625 1.609375 4.710938 1.609375 2.296875 0 4.574219-1.027344 6.09375-2.984375 2.601562-3.363281 1.988281-8.203125-1.375-10.804688l-4.40625-3.414062c31.675781-5.628907 55.8125-33.347657 55.8125-66.617188zm0 0" fill="#5a5a5a"/></svg>